<svg width="89" height="89" viewBox="0 0 89 89" fill="none" xmlns="http://www.w3.org/2000/svg">
<g opacity="0.5">
<path fill-rule="evenodd" clip-rule="evenodd" d="M40.3281 16.6875V20.8594H8.34375C7.23681 20.8594 6.17577 21.2988 5.39423 22.0817C4.61131 22.8633 4.17188 23.9243 4.17188 25.0312C4.17188 28.5203 4.17188 36.9642 4.17188 43.8047C4.17188 44.5723 4.79488 45.1953 5.5625 45.1953C6.33013 45.1953 6.95312 44.5723 6.95312 43.8047V25.0312C6.95312 24.6627 7.09914 24.3081 7.36058 24.0481C7.62063 23.7866 7.97523 23.6406 8.34375 23.6406H80.6562C81.0248 23.6406 81.3794 23.7866 81.6394 24.0481C81.9009 24.3081 82.0469 24.6627 82.0469 25.0312V59.7969H61.8661C62.0511 55.1174 60.3601 50.3782 56.7917 46.8098C54.8643 44.8824 52.5948 43.5029 50.1793 42.6713C52.6338 40.9025 54.2344 38.0197 54.2344 34.7656C54.2344 29.3936 49.872 25.0312 44.5 25.0312C39.128 25.0312 34.7656 29.3936 34.7656 34.7656C34.7656 38.0197 36.3662 40.9025 38.8207 42.6713C36.4052 43.5029 34.1357 44.8824 32.2083 46.8098C28.6399 50.3782 26.9489 55.1174 27.1339 59.7969H6.95312V48.6719C6.95312 47.9043 6.33013 47.2812 5.5625 47.2812C4.79488 47.2812 4.17188 47.9043 4.17188 48.6719V66.75C4.17188 67.8569 4.61131 68.918 5.39423 69.6995C6.17577 70.4824 7.23681 70.9219 8.34375 70.9219H13.9062C14.6739 70.9219 15.2969 70.2989 15.2969 69.5312C15.2969 68.7636 14.6739 68.1406 13.9062 68.1406H8.34375C7.97523 68.1406 7.62063 67.9946 7.36058 67.7332C7.09914 67.4731 6.95312 67.1185 6.95312 66.75V62.5781H82.0469V66.75C82.0469 67.1185 81.9009 67.4731 81.6394 67.7332C81.3794 67.9946 81.0248 68.1406 80.6562 68.1406H19.4688C18.7011 68.1406 18.0781 68.7636 18.0781 69.5312C18.0781 70.2989 18.7011 70.9219 19.4688 70.9219H36.999C36.7765 74.6515 35.81 79.47 32.2472 82.0469H29.8984C29.1308 82.0469 28.5078 82.6699 28.5078 83.4375C28.5078 84.2051 29.1308 84.8281 29.8984 84.8281H59.1016C59.8692 84.8281 60.4922 84.2051 60.4922 83.4375C60.4922 82.6699 59.8692 82.0469 59.1016 82.0469H56.7528C53.19 79.4687 52.2235 74.6515 52.001 70.9219H80.6562C81.7632 70.9219 82.8242 70.4824 83.6058 69.6995C84.3887 68.918 84.8281 67.8569 84.8281 66.75C84.8281 58.3673 84.8281 33.4139 84.8281 25.0312C84.8281 23.9243 84.3887 22.8633 83.6058 22.0817C82.8242 21.2988 81.7632 20.8594 80.6562 20.8594H48.6719V16.6875H52.8438C55.148 16.6875 57.0156 14.8199 57.0156 12.5156V8.34375C57.0156 6.03948 55.148 4.17188 52.8438 4.17188H36.1562C33.852 4.17188 31.9844 6.03948 31.9844 8.34375C31.9844 9.65233 31.9844 11.207 31.9844 12.5156C31.9844 14.8199 33.852 16.6875 36.1562 16.6875H40.3281ZM49.2198 70.9219H39.7802C39.5647 74.4415 38.6886 78.8206 36.1855 82.0469H52.8145C50.3114 78.8206 49.4353 74.4402 49.2198 70.9219ZM38.1309 45.9588C36.7014 46.6513 35.3608 47.5914 34.1746 48.7762C31.1639 51.7869 29.7455 55.7905 29.9151 59.7371C29.9165 59.7565 29.9165 59.7774 29.9165 59.7969H59.0835C59.0835 59.7774 59.0835 59.7565 59.0849 59.7371C59.2545 55.7905 57.8361 51.7869 54.8254 48.7762C53.6392 47.5914 52.2986 46.6513 50.8691 45.9588C50.6048 47.1185 50.0222 48.2185 49.1197 49.1197C46.5706 51.6701 42.4294 51.6701 39.8803 49.1197C38.9778 48.2185 38.3952 47.1185 38.1309 45.9588ZM9.73438 50.0625V52.8438C9.73438 53.6114 10.3574 54.2344 11.125 54.2344C11.8926 54.2344 12.5156 53.6114 12.5156 52.8438V50.0625C12.5156 49.2949 11.8926 48.6719 11.125 48.6719C10.3574 48.6719 9.73438 49.2949 9.73438 50.0625ZM48.2199 44.9812C45.7849 44.3429 43.2151 44.3429 40.7801 44.9812C40.8816 45.7766 41.2376 46.5442 41.8467 47.1533C43.311 48.6176 45.689 48.6176 47.1533 47.1533C47.7624 46.5442 48.1184 45.7766 48.2199 44.9812ZM12.5156 45.8906V27.8125C12.5156 27.0449 11.8926 26.4219 11.125 26.4219C10.3574 26.4219 9.73438 27.0449 9.73438 27.8125V45.8906C9.73438 46.6582 10.3574 47.2812 11.125 47.2812C11.8926 47.2812 12.5156 46.6582 12.5156 45.8906ZM44.5 27.8125C48.3381 27.8125 51.4531 30.9275 51.4531 34.7656C51.4531 38.6037 48.3381 41.7188 44.5 41.7188C40.6619 41.7188 37.5469 38.6037 37.5469 34.7656C37.5469 30.9275 40.6619 27.8125 44.5 27.8125ZM43.1094 16.6875H45.1272H45.8906V20.8594H43.1094V16.6875ZM54.2344 8.34375V12.5156C54.2344 13.2832 53.6114 13.9062 52.8438 13.9062H36.1562C35.3886 13.9062 34.7656 13.2832 34.7656 12.5156V8.34375C34.7656 7.57612 35.3886 6.95312 36.1562 6.95312H52.8438C53.6114 6.95312 54.2344 7.57612 54.2344 8.34375ZM50.0625 9.03906C50.8301 9.03906 51.4531 9.66206 51.4531 10.4297C51.4531 11.1973 50.8301 11.8203 50.0625 11.8203C49.2949 11.8203 48.6719 11.1973 48.6719 10.4297C48.6719 9.66206 49.2949 9.03906 50.0625 9.03906ZM38.9375 9.03906C39.7051 9.03906 40.3281 9.66206 40.3281 10.4297C40.3281 11.1973 39.7051 11.8203 38.9375 11.8203C38.1699 11.8203 37.5469 11.1973 37.5469 10.4297C37.5469 9.66206 38.1699 9.03906 38.9375 9.03906Z" fill="white"/>
</g>
</svg>
