<svg width="68" height="69" viewBox="0 0 68 69" fill="none" xmlns="http://www.w3.org/2000/svg">
<g opacity="0.5" clip-path="url(#clip0_7_468)">
<path d="M67.0284 0.84C66.6756 0.612625 66.274 0.5 65.8745 0.5C65.4644 0.5 65.0521 0.616875 64.6951 0.857L0.945151 43.357C0.288526 43.7926 -0.0727235 44.5598 0.0122764 45.346C0.0930264 46.1301 0.603026 46.808 1.33615 47.097L17.9621 53.7504L25.78 67.4311C26.154 68.0878 26.8489 68.4936 27.6011 68.5021C27.6096 68.5021 27.616 68.5021 27.6245 68.5021C28.3704 68.5021 29.0631 68.1069 29.4456 67.4694L33.8593 60.1105L54.4611 68.3491C54.714 68.4511 54.9796 68.5 55.2495 68.5C55.6108 68.5 55.9678 68.4086 56.2908 68.2259C56.8518 67.9114 57.2364 67.3589 57.3448 66.7235L67.9698 2.9735C68.1079 2.13838 67.7381 1.30113 67.0284 0.84ZM6.66352 44.6511L55.9104 11.8178L20.1041 50.1464C19.915 50.0338 19.7471 49.885 19.5389 49.8021L6.66352 44.6511ZM21.6511 51.6403C21.6469 51.6318 21.6405 51.6275 21.6363 51.619L61.8901 8.53463L27.5735 62.0039L21.6511 51.6403ZM53.5856 63.4191L35.436 56.1601C35.0046 55.9901 34.5563 55.9328 34.1121 55.9073L62.0601 12.5828L53.5856 63.4191Z" fill="white"/>
</g>
<defs>
<clipPath id="clip0_7_468">
<rect width="68" height="68" fill="white" transform="translate(0 0.5)"/>
</clipPath>
</defs>
</svg>
